<?xml version="1.0" encoding="UTF-8"?>
<svg width="56px" height="76px" viewBox="0 0 56 76" version="1.1" xmlns="http://www.w3.org/2000/svg" xmlns:xlink="http://www.w3.org/1999/xlink">
    <!-- Generator: Sketch 54.1 (76490) - https://sketchapp.com -->
    <title>编组@2x</title>
    <desc>Created with Sketch.</desc>
    <defs>
        <polygon id="path-1" points="0.000119148936 0.00012 55.9143319 0.00012 55.9143319 75.7184 0.000119148936 75.7184"></polygon>
    </defs>
    <g id="页面2" stroke="none" stroke-width="1" fill="none" fill-rule="evenodd">
        <g id="登录" transform="translate(-568.000000, -398.000000)">
            <g id="编组" transform="translate(568.000000, 398.000000)">
                <mask id="mask-2" fill="white">
                    <use xlink:href="#path-1"></use>
                </mask>
                <g id="Clip-2"></g>
                <path d="M38.1134809,10.85292 C41.992573,10.85292 45.1377078,13.89852 45.1377078,17.65532 C45.1377078,21.41212 41.992573,24.45812 38.1134809,24.45812 C34.2339915,24.45812 31.0892539,21.41212 31.0892539,17.65532 C31.0892539,13.89852 34.2339915,10.85292 38.1134809,10.85292 L38.1134809,10.85292 Z M55.9143319,35.95572 L55.9143319,7.88252 C55.9143319,3.53652 51.897027,0.00012 46.9587007,0.00012 L8.9132539,0.00012 C3.99836028,0.00012 0.000119148936,3.51972 0.000119148936,7.84572 L0.000119148936,30.07892 C0.000119148936,55.80372 11.6469277,68.96172 40.1985872,75.49452 L41.1736227,75.71852 L46.3288,62.85932 L45.3132539,62.53092 C28.1768567,56.99012 21.0958355,49.01092 21.817878,35.95572 L55.9143319,35.95572 Z" id="Fill-1" fill="#FFFFFF" mask="url(#mask-2)"></path>
            </g>
        </g>
    </g>
</svg>
